<svg
  width="40"
  height="40"
  viewBox="0 0 40 40"
  fill="none"
  xmlns="http://www.w3.org/2000/svg"
>
  <!-- Person head - Orange -->
  <path
    d="M17.9475 0.868025C14.0901 2.77765 14.3193 8.35374 18.2913 10.4161C20.5064 11.5619 23.4854 10.6835 24.9368 8.43012C25.8152 7.09339 25.8152 4.11438 24.9368 2.77765C23.4473 0.447909 20.4301 -0.354132 17.9475 0.868025Z"
    fill="#E67E22"
  />
  
  <!-- Person body/shoulders curve - Orange -->
  <path
    d="M17.4511 12.0957C14.3193 12.5159 12.1423 13.2033 9.77438 14.4637C7.29188 15.7622 4.12191 18.7794 4.6566 19.3141C5.11491 19.7342 10.1945 21.2619 11.1493 21.2619C11.493 21.2619 12.3333 20.8418 12.9444 20.3071C15.4269 18.2065 17.0309 17.6336 20.5065 17.6336C23.982 17.6336 25.1659 18.0538 27.763 20.1543C28.4887 20.7654 29.3289 21.2619 29.6726 21.2619C30.5129 21.2619 35.898 19.6578 36.3563 19.2759C36.891 18.8176 33.1481 15.4949 30.7038 14.2727C26.8082 12.4013 21.5376 11.5228 17.4511 12.0957Z"
    fill="#E67E22"
  />
  
  <!-- Left book page - Navy -->
  <path
    d="M3.1289 22.4844C3.01432 22.79 2.97613 25.7308 3.01432 29.0917L3.1289 35.1643L10.3855 37.3795C14.3957 38.6016 17.9476 39.5946 18.3295 39.5946C18.9024 39.5946 18.9788 39.0599 18.9788 33.6748C18.9788 28.0223 18.9406 27.6786 18.1385 26.8766C17.5274 26.2655 15.2359 25.4252 10.7674 24.1649C7.21549 23.1337 4.04552 22.2171 3.81636 22.1407C3.54902 22.0261 3.24348 22.1789 3.1289 22.4844Z"
    fill="#353A56"
  />
  
  <!-- Right book page - Teal -->
  <path
    d="M35.2105 22.5993C34.3703 22.9049 31.4677 23.7833 28.7178 24.5472C25.0132 25.6165 23.4855 26.2658 22.7216 27.0297L21.6522 28.0609V33.8279C21.6522 36.9597 21.805 39.6332 21.9578 39.7477C22.1105 39.8241 25.7006 38.8311 29.8636 37.5326L37.5021 35.1646V28.7101C37.5021 24.7381 37.3493 22.2556 37.1202 22.1792C36.9292 22.141 36.0508 22.332 35.2105 22.5993Z"
    fill="#7BAEB5"
  />
</svg>
